Coordinates
version=1
nRows=17
nColumns=24
inDegrees=yes

Units are S.I. units (second, meters, Newtons, ...)
Angles are in degrees.

endheader
time	pelvis_tilt	pelvis_list	pelvis_rotation	pelvis_tx	pelvis_ty	pelvis_tz	hip_flexion_r	hip_adduction_r	hip_rotation_r	knee_angle_r	ankle_angle_r	subtalar_angle_r	mtp_angle_r	hip_flexion_l	hip_adduction_l	hip_rotation_l	knee_angle_l	ankle_angle_l	subtalar_angle_l	mtp_angle_l	lumbar_extension	lumbar_bending	lumbar_rotation
      3.37000000	    -11.05484961	      4.65304480	     -0.94513477	     -2.02568170	     -0.01637592	     -0.67286351	     22.82682619	     -7.30649855	     -3.13255478	    -67.42952286	    -24.87203261	    -18.93563279	      1.04787773	     26.19928476	      6.17602051	    -12.24934524	    -21.70548011	      1.90518228	     -9.50831271	      2.99229768	      7.51827553	     -6.15978379	     -1.18589423
      3.37500000	    -11.07236431	      4.50510881	     -0.80667126	     -2.02002190	     -0.01536471	     -0.67357844	     23.66956111	     -7.12387071	     -3.14309600	    -68.03026652	    -23.86967263	    -18.75963337	      1.36592437	     25.62655470	      6.18936910	    -12.00130313	    -21.33063310	      2.08788341	     -9.44970934	      3.17678558	      7.52115955	     -6.01493481	     -1.44513422
      3.38000000	    -11.09778164	      4.35893324	     -0.69168472	     -2.01441641	     -0.01433116	     -0.67423604	     24.50784589	     -6.91825752	     -3.10617620	    -68.53867631	    -22.74952029	    -18.47069416	      1.82945450	     25.06027775	      6.18883818	    -11.79263901	    -20.93873222	      2.19763376	     -9.43353261	      3.27850078	      7.52803920	     -5.86979578	     -1.64013799
      3.38500000	    -11.11288493	      4.25988024	     -0.61485670	     -2.00877993	     -0.01329864	     -0.67492593	     25.33417508	     -6.76417373	     -3.02991338	    -68.95865393	    -21.69066221	    -18.18757577	      2.63603196	     24.44794245	      6.24034893	    -11.56807317	    -20.47964269	      2.27822826	     -9.51280318	      3.28457528	      7.54145513	     -5.75468821	     -1.78730970
      3.39000000	    -11.09841381	      4.05898554	     -0.46791472	     -2.00312097	     -0.01220147	     -0.67563371	     26.06430523	     -6.52400751	     -3.07870302	    -69.25465002	    -20.61461075	    -17.90741248	      3.08713667	     23.81539394	      6.19130688	    -11.31893044	    -20.06582306	      2.50273360	     -9.37384878	      3.30873672	      7.51911861	     -5.55043332	     -2.03416193
      3.39500000	    -11.06998897	      3.91622110	     -0.35331101	     -1.99744944	     -0.01110809	     -0.67631420	     26.77460875	     -6.33665466	     -3.07820602	    -69.48082145	    -19.52045199	    -17.58318008	      3.61089042	     23.14648282	      6.19204333	    -11.11658110	    -19.60260417	      2.65048824	     -9.29908700	      3.26907704	      7.49086885	     -5.39856836	     -2.21883274
      3.40000000	    -11.02272093	      3.78437171	     -0.23480330	     -1.99174918	     -0.00998924	     -0.67700000	     27.43523926	     -6.16860562	     -3.09294290	    -69.60769009	    -18.48425001	    -17.31048554	      4.20090150	     22.44253040	      6.20402697	    -10.92191364	    -19.11107368	      2.75725028	     -9.23576404	      3.17576357	      7.45075193	     -5.25652936	     -2.38166428
      3.40500000	    -10.92221222	      3.69269641	     -0.14021391	     -1.98600438	     -0.00885863	     -0.67773087	     28.02382646	     -6.05414291	     -3.09781197	    -69.64509156	    -17.59715205	    -17.14326786	      5.06106948	     21.64863666	      6.26441604	    -10.72053094	    -18.56397141	      2.88316458	     -9.23597899	      2.95290252	      7.36444911	     -5.13795882	     -2.50464694
      3.41000000	    -10.89133586	      3.52729830	      0.00532311	     -1.98032525	     -0.00783050	     -0.67838913	     28.65988189	     -5.86047707	     -3.17217696	    -69.61757643	    -16.70812195	    -16.98835539	      5.37083447	     20.96973941	      6.22781429	    -10.52159673	    -18.09020850	      3.05934914	     -9.05444389	      2.94712057	      7.33898283	     -4.96744398	     -2.72860118
      3.41500000	    -10.80779952	      3.41375394	      0.13573506	     -1.97458216	     -0.00678660	     -0.67906696	     29.21746573	     -5.73346681	     -3.23955195	    -69.51624519	    -15.86013707	    -16.85771914	      5.63537123	     20.20469252	      6.24481252	    -10.36401911	    -17.56003734	      3.19358284	     -8.91663503	      2.92801970	      7.27047413	     -4.84024264	     -2.90222987
      3.42000000	    -10.70306056	      3.30540352	      0.26853995	     -1.96881693	     -0.00575704	     -0.67974526	     29.72600416	     -5.62205334	     -3.32891911	    -69.33444236	    -15.08517899	    -16.79789720	      5.82077318	     19.40918341	      6.26407931	    -10.20889102	    -17.01640247	      3.31642737	     -8.77926721	      2.91926642	      7.18537985	     -4.71686675	     -3.07542370
      3.42500000	    -10.58301408	      3.20028155	      0.41175457	     -1.96303085	     -0.00474944	     -0.68042785	     30.18700336	     -5.52319311	     -3.43768049	    -69.06967674	    -14.36967418	    -16.80569428	      5.91289581	     18.59243664	      6.28397048	    -10.06139619	    -16.46382632	      3.43115461	     -8.62841759	      2.92741985	      7.08341179	     -4.59691384	     -3.25435179
      3.43000000	    -10.44346938	      3.09510047	      0.56017480	     -1.95722406	     -0.00376475	     -0.68110445	     30.59714969	     -5.43369775	     -3.57024228	    -68.72460962	    -13.70445867	    -16.87531903	      5.89669467	     17.75194803	      6.29864326	     -9.91885724	    -15.90723201	      3.54501194	     -8.46364312	      2.95753675	      6.96467424	     -4.47617663	     -3.44016549
      3.43500000	    -10.29415908	      2.98973520	      0.71495697	     -1.95140757	     -0.00282064	     -0.68177274	     30.96850790	     -5.35179324	     -3.72355309	    -68.30204267	    -13.08332069	    -17.00837721	      5.77091654	     16.90187948	      6.30741526	     -9.77902261	    -15.35225581	      3.66130306	     -8.28255677	      3.01048598	      6.83689749	     -4.35546584	     -3.63259186
      3.44000000	    -10.13978792	      2.88058714	      0.87042350	     -1.94558085	     -0.00191848	     -0.68242555	     31.30521394	     -5.26821434	     -3.88935399	    -67.79903395	    -12.50057143	    -17.19747218	      5.53841559	     16.04895418	      6.30469751	     -9.64504555	    -14.80142758	      3.77417734	     -8.09070397	      3.08158281	      6.70556671	     -4.23063517	     -3.82319094
      3.44500000	     -9.99572560	      2.77401965	      1.02690881	     -1.93975334	     -0.00109267	     -0.68306181	     31.62924934	     -5.19222074	     -4.06475509	    -67.22407111	    -11.95052509	    -17.42645450	      5.24991708	     15.21378169	      6.29757810	     -9.51565446	    -14.26124542	      3.89141130	     -7.89230961	      3.16086752	      6.58537348	     -4.10847362	     -4.01659478
      3.45000000	     -9.85663240	      2.66763696	      1.18606539	     -1.93393805	     -0.00033413	     -0.68368737	     31.93202422	     -5.12103455	     -4.24725140	    -66.57118640	    -11.43163294	    -17.68443225	      4.94258635	     14.39232636	      6.28519404	     -9.38299746	    -13.73377316	      4.01447009	     -7.69043778	      3.23699566	      6.46960367	     -3.98584250	     -4.21170729
